<svg width="28" height="28" viewBox="0 0 28 28" fill="none" xmlns="http://www.w3.org/2000/svg">
<g clip-path="url(#clip0_100_1608)">
<path d="M21.1145 21.1145C20.5805 21.6485 19.7151 21.6485 19.181 21.1145L6.88557 8.81904C6.35154 8.28501 6.35154 7.41958 6.88557 6.88555C7.4196 6.35152 8.28503 6.35152 8.81906 6.88555L21.1145 19.181C21.6485 19.715 21.6485 20.5805 21.1145 21.1145Z" fill="#2D2B2D"/>
<path d="M21.1144 8.81899L8.81894 21.1145C8.28491 21.6485 7.41948 21.6485 6.88545 21.1145C6.35142 20.5804 6.35142 19.715 6.88545 19.181L19.1809 6.8855C19.7149 6.35147 20.5804 6.35147 21.1144 6.8855C21.6484 7.41953 21.6484 8.28496 21.1144 8.81899Z" fill="#2D2B2D"/>
</g>
<defs>
<clipPath id="clip0_100_1608">
<rect width="27.9999" height="27.9999" fill="white"/>
</clipPath>
</defs>
</svg>
