<svg width="24" height="24" viewBox="0 0 24 24" fill="none" xmlns="http://www.w3.org/2000/svg">
<path d="M10.2931 1C5.16887 1 1 5.16887 1 10.2931C1 15.4173 5.16887 19.5862 10.2931 19.5862C15.4173 19.5862 19.5862 15.4173 19.5862 10.2931C19.5862 5.16887 15.4173 1 10.2931 1ZM10.2931 17.9606C6.06516 17.9606 2.62564 14.5211 2.62564 10.2931C2.62564 6.06516 6.06516 2.62564 10.2931 2.62564C14.5208 2.62564 17.9606 6.06516 17.9606 10.2931C17.9606 14.5211 14.5211 17.9606 10.2931 17.9606Z" fill="#2D2B2D"/>
<path d="M22.7618 21.6125L16.8554 15.7061C16.5378 15.3886 16.0236 15.3886 15.706 15.7061C15.3885 16.0234 15.3885 16.5382 15.706 16.8555L21.6125 22.7619C21.7713 22.9206 21.9791 23 22.1872 23C22.3953 23 22.603 22.9206 22.7618 22.7619C23.0793 22.4446 23.0793 21.9298 22.7618 21.6125Z" fill="#2D2B2D"/>
</svg>
