<svg width="14" height="14" viewBox="0 0 14 14" fill="none" xmlns="http://www.w3.org/2000/svg">
<g clip-path="url(#clip0_89_707)">
<path d="M10.5572 10.5572C10.2902 10.8242 9.85748 10.8242 9.59047 10.5572L3.44272 4.40949C3.17571 4.14248 3.17571 3.70976 3.44272 3.44274C3.70974 3.17573 4.14246 3.17573 4.40947 3.44274L10.5572 9.59048C10.8242 9.8575 10.8242 10.2902 10.5572 10.5572Z" fill="white"/>
<path d="M10.5572 4.40955L4.40947 10.5573C4.14246 10.8243 3.70974 10.8243 3.44272 10.5573C3.17571 10.2903 3.17571 9.85756 3.44272 9.59054L9.59047 3.4428C9.85748 3.17578 10.2902 3.17578 10.5572 3.4428C10.8242 3.70981 10.8242 4.14253 10.5572 4.40955Z" fill="white"/>
</g>
<defs>
<clipPath id="clip0_89_707">
<rect width="14" height="14" fill="white"/>
</clipPath>
</defs>
</svg>
