<svg width="24" height="24" viewBox="0 0 24 24" fill="none" xmlns="http://www.w3.org/2000/svg">
<path d="M10.1206 17.7683L7.52818 20.3607C6.45343 21.4355 4.71294 21.4355 3.63908 20.3609C2.56501 19.2869 2.56501 17.5462 3.63887 16.4724L8.82458 11.2866C9.89843 10.2127 11.6391 10.2127 12.7129 11.2866C13.0709 11.6446 13.6514 11.6446 14.0093 11.2866C14.3673 10.9287 14.3673 10.3482 14.0093 9.99025C12.2195 8.20039 9.31804 8.20039 7.52818 9.99025L2.34252 15.1759C0.552657 16.9658 0.552657 19.8672 2.34252 21.6571C4.13216 23.4479 7.03382 23.4479 8.82462 21.6571L11.417 19.0647C11.775 18.7067 11.775 18.1263 11.417 17.7683C11.059 17.4103 10.4786 17.4103 10.1206 17.7683Z" fill="#B5B5B5"/>
<path d="M21.6576 2.3422C19.8677 0.552337 16.9653 0.552337 15.1754 2.3422L12.0651 5.45251C11.7072 5.81049 11.7072 6.39093 12.0651 6.74891C12.4231 7.10689 13.0035 7.10689 13.3615 6.74891L16.4718 3.63859C17.5457 2.56469 19.2873 2.56469 20.3612 3.63859C21.435 4.71245 21.435 6.4531 20.3612 7.52696L14.6575 13.2306C13.5836 14.3045 11.843 14.3045 10.7692 13.2306C10.4112 12.8726 9.83075 12.8726 9.47277 13.2306C9.11479 13.5886 9.11479 14.169 9.47277 14.527C11.2626 16.3169 14.1641 16.3169 15.9539 14.527L21.6576 8.8234C23.4474 7.03354 23.4474 4.13205 21.6576 2.3422Z" fill="#B5B5B5"/>
</svg>
