<svg width="36" height="36" viewBox="0 0 36 36" fill="none" xmlns="http://www.w3.org/2000/svg">
<g clip-path="url(#clip0_89_665)">
<path d="M0.376358 13.2337L9.37653 4.23352C9.87872 3.73148 10.6928 3.73163 11.1948 4.23382C11.4358 4.4749 11.5712 4.80171 11.5713 5.1426V8.99981H20.5715C21.2816 8.99981 21.8572 9.57545 21.8572 10.2856C21.8572 10.9957 21.2816 11.5713 20.5715 11.5713H10.2855C9.57542 11.5713 8.99977 10.9957 8.99977 10.2856V8.24629L3.10337 14.1427L8.99977 20.0391V17.9999C8.99977 17.2898 9.57542 16.7141 10.2855 16.7141H24.4287V12.8569C24.4288 12.1468 25.0046 11.5713 25.7147 11.5715C26.0555 11.5716 26.3824 11.7069 26.6234 11.9479L35.6235 20.9481C36.1255 21.4502 36.1255 22.2641 35.6235 22.7661L26.6234 31.7663C26.3823 32.0074 26.0553 32.143 25.7144 32.143C25.5454 32.1436 25.3779 32.1103 25.222 32.0453C24.7416 31.8461 24.4285 31.3773 24.4287 30.8573V27.0001H15.4285C14.7184 27.0001 14.1427 26.4244 14.1427 25.7143C14.1427 25.0042 14.7184 24.4285 15.4285 24.4285H25.7144C26.4245 24.4285 27.0001 25.0042 27.0001 25.7143V27.7535L32.8965 21.8571L27.0001 15.9607V17.9999C27.0001 18.71 26.4245 19.2857 25.7144 19.2857H11.5713V23.1429C11.5711 23.853 10.9953 24.4285 10.2853 24.4283C9.94449 24.4282 9.61761 24.2929 9.37653 24.0519L0.376358 15.0517C-0.12553 14.5496 -0.12553 13.7357 0.376358 13.2337Z" fill="black"/>
</g>
<defs>
<clipPath id="clip0_89_665">
<rect width="36" height="36" fill="white" transform="matrix(-1 0 0 1 36 0)"/>
</clipPath>
</defs>
</svg>
